# xmcd
#
# Track frame offsets: 
#        150
#        10093
#        22390
#        30233
#        45278
#        57595
#
# Disc length: 931 seconds
#
# Revision: 0
# Processed by: cddbd v1.5.2PL0 Copyright (c) Steve Scherf et al.
# Submitted via: ExactAudioCopy v0.95b4
#
DISCID=4103a106
DTITLE=Landlord - band next door
DYEAR=2007
DGENRE=Porn Groove
TTITLE0=postcard blues
TTITLE1=my grammophone
TTITLE2=bitter little devil
TTITLE3=next door future
TTITLE4=apologies
TTITLE5=every night
EXTD=
EXTT0=
EXTT1=
EXTT2=
EXTT3=
EXTT4=
EXTT5=
PLAYORDER=
